<svg width="127" height="128" viewBox="0 0 127 128" fill="none" xmlns="http://www.w3.org/2000/svg">
<path fill-rule="evenodd" clip-rule="evenodd" d="M63.1756 10.5137C53.4367 15.1143 50.566 30.4395 55.1065 47.6809C56.2488 48.1826 57.3943 48.7271 58.5474 49.3235C69.0261 54.7424 77.825 63.0707 83.5556 72.1394C87.5559 78.4584 90.0764 85.1552 90.6971 91.5198C93.2758 92.1073 95.779 92.1767 98.1154 91.6601C84.0222 72.4286 81.029 60.97 79.4896 49.7774C77.9989 38.9384 77.2456 26.9203 63.8023 10.2287C63.6018 10.3235 63.3831 10.4157 63.1756 10.5137ZM16.874 62.2408C13.5812 77.6215 26.5954 98.2046 45.9407 108.209C63.797 117.443 80.8042 114.438 85.9084 101.836C66.3042 97.4262 57.6417 90.1745 49.948 81.9112C42.5036 73.9069 34.7395 64.2589 17.0557 61.4792C16.9918 61.7199 16.9294 61.982 16.874 62.2408ZM86.6465 99.6369C86.7533 99.2541 86.8489 98.8655 86.9333 98.4711C90.2262 83.0904 77.2119 62.5073 57.8667 52.5031C39.641 43.0779 22.3037 46.4046 17.598 59.6721C36.4342 62.3838 44.0794 68.5208 51.9183 76.9482C59.2682 84.842 68.0967 95.239 86.6465 99.6369ZM100.088 91.0718C100.412 90.9519 100.728 90.8139 101.039 90.6669C113.247 84.8999 114.67 62.2826 104.213 40.1477C94.3646 19.2988 77.4857 6.31283 65.3569 9.70485C79.832 27.327 82.6284 37.2943 84.198 48.6943C85.6746 59.3959 86.8885 72.7473 100.088 91.0718Z" fill="#E57723"/>
</svg>
