<svg width="303" height="452" viewBox="0 0 303 452" fill="none" xmlns="http://www.w3.org/2000/svg">
<path d="M151 0C156.774 2.26851 159.407 7.49301 162.312 12.6875C165.07 17.4976 168.042 22.0244 171.266 26.5312C173.622 29.8851 175.796 33.3415 177.98 36.8086C180.483 40.7635 183.02 44.6955 185.562 48.625C186.04 49.3637 186.517 50.1024 187.009 50.8635C189.429 54.6007 191.874 58.3164 194.375 62C196.702 65.464 198.737 69.035 200.73 72.6992C204.216 79.0158 208.074 85.1207 211.875 91.25C215.059 96.4051 218.091 101.627 221.065 106.905C223.138 110.56 225.326 114.108 227.625 117.625C230.65 122.297 233.117 127.12 235.551 132.121C236.852 134.706 238.24 137.159 239.75 139.625C247.112 151.651 253.684 164.108 259.89 176.761C261.128 179.258 262.392 181.741 263.66 184.223C268.9 194.515 273.798 204.843 278.148 215.543C279.497 218.851 280.951 222.097 282.449 225.34C301.162 266.231 309.765 307.977 294.196 351.335C288.577 366.184 281.269 379.155 272 392C271.34 392.99 270.68 393.98 270 395C269.34 395 268.68 395 268 395C267.771 395.544 267.541 396.088 267.305 396.648C253.257 421.969 218.582 438.323 192 446C158.33 455.376 121.793 452.355 90 438C88.854 437.488 87.708 436.976 86.5273 436.449C67.5304 427.476 48.9651 413.669 36 397C36 396.34 36 395.68 36 395C35.34 395 34.68 395 34 395C14.7055 371.899 1.91686 339.098 0.999957 309C0.959996 307.81 0.920035 306.62 0.878864 305.395C0.251776 269.208 16.9092 229.906 33.332 198.27C34.9258 195.145 36.4081 191.991 37.8723 188.805C41.1623 181.653 44.7233 174.761 48.6506 167.939C51.2109 163.471 53.5596 158.942 55.8125 154.312C60.7343 144.274 66.3826 134.66 72 125C73.1655 122.986 74.3308 120.971 75.496 118.957C81.7034 108.249 88.0071 97.6113 94.5 87.0742C96.4469 83.9127 98.3573 80.7318 100.251 77.5383C106.038 67.7868 112.157 58.2485 118.273 48.7009C120.067 45.8945 121.852 43.0822 123.637 40.2695C126.273 36.1256 128.949 32.0141 131.687 27.9375C132.535 26.672 133.383 25.4063 134.23 24.1406C134.894 23.1497 134.894 23.1497 135.572 22.1387C137.134 19.7998 138.687 17.4551 140.238 15.1094C141.052 13.8817 141.052 13.8817 141.882 12.6292C142.945 11.0253 144.006 9.42036 145.065 7.81421C145.791 6.72088 145.791 6.72088 146.531 5.60547C147.174 4.63323 147.174 4.63323 147.83 3.64136C149 2 149 2 151 0Z" fill="#E57723"/>
</svg>
